# xmcd
#
# Track frame offsets:
# 7087
# 21475
# 38752
# 53677
# 69175
# 83270
# 99832
# 116905
# 131400
# 149255
# 164925
#
# Disc length: 2365 seconds
#
#
# Revision: 0
# Processed by: cddbd v1.5.2PL0 Copyright (c) Steve Scherf et al.
# Submitted via: FreeRIP 2.945 
#
DISCID=9808df0b
DTITLE=Diamond Rio - IV Four
DYEAR=1996
DGENRE=Country
TTITLE0=Holdin'
TTITLE1=Walkin' Away
TTITLE2=That's What I Get For Loving You
TTITLE3=She Misses Him On Sunday The Most
TTITLE4=She Sure Did Like To Run
TTITLE5=It's All In Your Head
TTITLE6=Who Am I
TTITLE7=Love Takes You There
TTITLE8=Is That Askin' Too Much
TTITLE9=Just Another Heart
TTITLE10=Big (Instrumental)
EXTD=
EXTT0=
EXTT1=
EXTT2=
EXTT3=
EXTT4=
EXTT5=
EXTT6=
EXTT7=
EXTT8=
EXTT9=
EXTT10=
PLAYORDER=
